<?xml version="1.0" encoding="UTF-8" standalone="no"?>
<!-- Created with Inkscape (http://www.inkscape.org/) -->

<svg
   width="66.145828mm"
   height="42.415958mm"
   viewBox="0 0 66.145828 42.415959"
   version="1.1"
   id="svg4317"
   inkscape:version="1.1 (c68e22c387, 2021-05-23)"
   sodipodi:docname="Phoenix Infonews.svg"
   xmlns:inkscape="http://www.inkscape.org/namespaces/inkscape"
   xmlns:sodipodi="http://sodipodi.sourceforge.net/DTD/sodipodi-0.dtd"
   xmlns="http://www.w3.org/2000/svg"
   xmlns:svg="http://www.w3.org/2000/svg">
  <sodipodi:namedview
     id="namedview4319"
     pagecolor="#ffffff"
     bordercolor="#666666"
     borderopacity="1.0"
     inkscape:pageshadow="2"
     inkscape:pageopacity="0.0"
     inkscape:pagecheckerboard="0"
     inkscape:document-units="mm"
     showgrid="false"
     inkscape:zoom="1.4681257"
     inkscape:cx="60.280942"
     inkscape:cy="52.788395"
     inkscape:window-width="1920"
     inkscape:window-height="1009"
     inkscape:window-x="-8"
     inkscape:window-y="-8"
     inkscape:window-maximized="1"
     inkscape:current-layer="layer1" />
  <defs
     id="defs4314" />
  <g
     inkscape:label="Layer 1"
     inkscape:groupmode="layer"
     id="layer1"
     transform="translate(-165.55513,-153.13319)">
    <path
       d="m 210.49566,153.13319 c -4.39101,0 -8.48001,1.33186 -11.86761,3.62507 -3.38776,-2.2926 -7.46591,-3.62507 -11.85691,-3.62507 -11.72189,0 -21.21601,9.49947 -21.21601,21.19995 0,11.71654 9.49412,21.21601 21.21601,21.21601 4.391,0 8.46915,-1.34256 11.85691,-3.63042 3.3876,2.28725 7.4766,3.63042 11.86761,3.63042 11.71118,0 21.2053,-9.49947 21.2053,-21.21601 0,-11.70048 -9.49412,-21.19995 -21.2053,-21.19995"
       style="fill:#3360a6;fill-opacity:1;fill-rule:nonzero;stroke:none;stroke-width:5.39438"
       id="path3778" />
    <path
       d="m 225.49689,166.46921 0.005,-0.24313 -0.25842,0.15597 -0.0917,-0.20031 -0.18349,-0.0765 -0.34558,-0.35017 -0.10704,-0.26453 0.33946,0.21102 0.0612,-0.17738 -0.19879,-0.15597 -0.0917,-0.36087 0.10703,-0.42663 0.0153,-0.0153 c 0.12233,0.1942 0.16209,-0.0153 0.0459,-0.12233 l -0.10704,-0.10703 -0.0306,-0.19879 -0.10704,-0.25383 -0.17279,-0.24772 0.0765,0.55048 0.0612,0.33947 -0.0612,0.24313 c 0,0.2263 0.0153,0.46943 -0.0459,0.66975 l 0.0459,0.34558 -0.0917,0.39451 -0.15597,-0.12233 -0.0306,0.22172 -0.12233,0.0765 v 0.0612 l 0.10704,0.12233 0.0109,0.0765 -0.0109,0.0765 0.23242,-0.005 -0.13762,-0.23242 0.35628,-0.0306 0.16668,0.13762 0.0917,0.13762 0.13762,0.0306 0.0918,0.10703 0.1942,-0.24313 0.30276,-0.0153 z m -8.53384,5.89611 0.12233,0.23702 c 0.33946,-0.29206 1.2187,-1.61842 0.25383,-1.4022 l -0.29665,0.12233 c -0.0917,0.33487 -0.17279,0.75997 -0.0764,1.04133 m 6.79691,-4.35339 c -0.29665,0.24313 -0.93276,0.0306 -1.03062,0.44803 -0.40522,-0.2049 -0.45262,-0.49544 -0.81961,-0.0612 -0.21101,0.23701 -0.25842,0.45262 -0.53977,0.54437 0.0306,0.23242 0.22172,0.31347 0.42662,0.13762 l 0.0765,0.10704 c 0.25842,-0.0917 0.34558,-0.41592 0.65751,-0.35017 -0.005,0.13762 -0.0917,0.4098 0.0917,0.45262 0.30735,0.10703 0.21561,-0.3777 0.31347,-0.41592 0.38228,-0.20032 0.55048,0.73397 0.90677,0.15291 0.18808,0.18808 0.44803,0.19878 0.604,-0.0612 0.17279,-0.30276 -0.12233,-0.56577 0.0764,-0.92205 0.15291,-0.24313 0.48473,-0.33488 0.31347,-0.69116 -0.12233,-0.27524 -0.63611,-0.21102 -0.55048,-0.55507 -0.46944,0.0612 -0.13762,0.92817 -0.51837,1.22941 m -5.00067,15.90814 c 0.25384,0.12233 0.28595,0.58718 0.62541,0.42051 0.0306,-0.53366 -0.71715,-1.04133 -1.15448,-0.85783 l 0.0765,0.0153 c -0.33488,0.49084 0.24771,0.31347 0.44803,0.41592 m -4.65539,-5.65345 c 0.51225,-0.0612 1.0138,-0.22631 1.32115,-0.58871 0.16209,-0.18808 0.62541,-0.90065 0.12233,-0.91135 l 0.005,0.17279 c -0.24313,0.50155 -0.99239,1.09026 -1.45571,1.32727 m 0.41592,7.76791 c 0.17279,0.0764 0.4098,-0.0306 0.41591,-0.24772 0.005,-0.23243 -0.35016,-0.37769 -0.56118,-0.45262 l -0.0612,-0.0153 -0.19879,-0.0153 c 0.12233,0.1942 0.19879,0.65752 0.4098,0.74468 m -0.4098,-0.74468 -0.0306,-0.0306 c -0.23243,-0.32876 -0.75538,-0.55048 -1.10096,-0.27983 0.12232,0.38228 0.71256,0.27983 1.12695,0.30735 m -0.57189,-5.86905 c -0.41592,0.25384 -0.66822,0.53978 -1.16977,0.49085 -0.72786,-0.0918 -0.36699,0.15597 -0.81502,0.57189 -0.3991,-0.12233 -0.50155,-0.52908 -0.72786,0.12233 -0.0612,0.65293 0.13762,0.99239 0.61012,1.38079 0.26454,0.2156 0.86242,0.62082 1.21871,0.56118 l 0.23701,0.4098 c 0.27983,-0.10703 0.26454,-0.39909 0.35628,-0.64681 0.15597,-0.4098 0.0918,-0.15291 0.4098,-0.39298 0.21102,-0.16209 0.25384,-0.44192 0.45874,-0.57189 0.13762,-0.0917 0.49085,-0.0765 0.66364,-0.15291 -0.10704,-0.31806 -1.11167,-0.88536 -0.35629,-1.14378 l 0.16209,0.10704 c 0.0917,-0.12233 0.15597,-0.12233 0.0917,-0.32418 0.18809,0.12233 0.3777,0.10704 0.44804,-0.12232 -0.58871,-0.15292 -0.38228,-0.70646 -0.72786,-0.97099 -0.3884,-0.30735 -0.27983,0.12233 -0.3884,0.29053 -0.0917,0.18349 -0.27983,0.26912 -0.46332,0.38381 m 3.44158,2.33572 c 0.32417,-0.3991 -0.36087,-0.35628 -0.63153,-0.35017 -0.4205,0.0109 -0.73856,0.15291 -1.14377,0.0459 l -0.0612,-0.0918 c -0.37157,0.16208 -0.45262,0.86242 -0.92205,0.9771 l 0.16667,0.0765 -0.15291,0.2049 c 0.0459,0.16667 0.24313,0.28594 0.27524,0.45873 l -0.0153,0.56119 c 0.30735,0.2156 0.51225,-0.75997 0.52907,-0.89606 0.0306,0.17279 0.0153,0.36699 -0.0306,0.50766 0.1942,0.0109 0.26912,0.12233 0.1942,0.30277 0.23701,0.0765 0.43732,0.0306 0.65751,0.005 0.0459,-0.26454 -0.30735,-0.84101 -0.45873,-1.10555 l 0.0459,-0.0306 c 0.3884,0.24313 0.70187,-0.23701 1.00922,-0.0153 l -0.0765,-0.28595 c -0.39909,-0.0612 -1.34868,0.30124 -1.40219,-0.29206 l 0.29664,0.0612 c 0.17279,-0.45874 1.35939,0.32876 1.72607,-0.12233 m 8.40982,4.01347 c 0.0765,-0.33947 -0.12233,-0.29207 -0.25383,-0.46333 -0.15597,-0.18808 -0.1942,-0.27524 -0.30276,-0.50155 -0.12233,-0.22631 0,-0.2049 -0.26454,-0.39451 -0.29053,-0.2156 -0.67893,-0.26912 -0.98169,-0.49084 -0.44192,-0.30736 -0.66364,-0.77679 -1.26764,-0.7875 -0.48014,-0.0109 -0.604,0.51837 -1.06273,0.63153 -0.26913,-0.35017 0.0765,-0.79361 -0.31347,-1.10097 -0.30735,-0.25383 -0.71257,-0.0306 -1.02451,0.005 l -0.0612,0.0306 c -0.0109,0.45262 0.96028,0.33946 0.64223,0.74926 -0.19879,-0.0765 -0.3884,-0.10703 -0.59942,-0.0612 l 0.26913,0.62541 c 0.15597,0.0612 0.31805,-0.22631 0.52907,-0.21102 0.38381,0.0306 0.96028,0.61012 1.11167,0.94346 0.23701,0.48626 0.0459,0.7982 0.38228,1.11626 0.31805,0.29053 0.9664,0.42662 1.1927,0.77679 l 0.12233,-0.0153 c 0.15292,-0.22172 -0.19419,-0.67434 -0.3991,-0.77679 0.26454,0.10703 0.45874,0.17279 0.74468,0.17279 0.26454,0 0.40522,-0.12233 0.63612,0.19419 0.18349,0.25384 0.20031,0.47403 0.42662,0.69575 0.18349,-0.21102 0.36087,-0.42051 0.52907,-0.64223 -0.15291,-0.26912 -0.30735,-0.52907 -0.37157,-0.69574 z m -2.23862,1.34256 c -0.12233,0.46332 -0.34558,0.91135 -0.63152,1.28904 -0.16668,0.21561 -0.33947,0.29053 -0.50767,0.46944 l -0.25842,0.3991 c -0.71257,0.33946 -1.25082,-0.88995 -1.76399,-1.09485 0.10704,-0.18808 0.25842,-0.36087 0.37158,-0.53977 l -0.10704,-0.0765 c 0.16667,-0.13762 0.38839,-0.30277 0.44803,-0.51225 l -0.0153,-0.0306 c -0.27983,0.0306 -0.55507,-0.0764 -0.82572,-0.0764 l -0.42051,0.0764 c -0.18808,-0.0612 -0.24313,-0.29664 -0.47403,-0.32876 l 0.0612,0.32876 c -0.21561,-0.0764 -0.32417,-0.0612 -0.52296,0.0153 l -0.2156,0.18809 -0.27983,-0.13762 c -0.23243,0.13762 -0.36087,0.70186 -0.10704,0.82572 l -0.0764,0.12233 -0.22631,-0.20032 -0.1835,0.26454 c -0.25842,-0.22631 0.0459,-0.55507 -0.26453,-0.78138 -0.1942,-0.12233 -0.70646,-0.0109 -0.92818,0.0917 -0.15597,0.0765 -0.17279,0.1942 -0.34558,0.32417 -0.21101,0.16667 -0.24771,0.0612 -0.45873,0.12233 -0.18808,0.0612 -0.23243,0.12233 -0.35629,0.18808 l -0.40521,0.17738 c -0.26454,0.18349 -0.39451,0.55048 -0.604,0.76609 -0.24313,0.24771 -0.57189,0.37157 -0.90677,0.31346 -0.3991,-0.0612 -0.57188,-0.24313 -1.0031,-0.15291 -0.42662,0.0917 -0.6147,0.22172 -0.95416,-0.12233 l -0.13762,0.0612 0.0764,0.10704 c -0.23701,0.53366 -0.12233,0.58718 0,1.05661 -0.87924,0 0.12233,0.62082 0.30277,0.89607 0.2156,0.35628 0.27524,0.75997 0.25842,1.15448 -0.0153,0.33487 -0.12233,0.66822 0.41592,0.71715 0.2156,0.0153 0.43121,-0.12233 0.65752,-0.16667 0.37769,-0.0612 0.7722,-0.005 1.15448,-0.0459 0.46944,-0.0306 0.83031,0.0918 1.26152,0.10704 3.22031,-0.81502 6.11172,-2.43817 8.46365,-4.64453 -0.13762,-0.23243 -0.34558,-0.41592 -0.43121,-0.64223 -0.0612,-0.21102 0.0612,-0.35017 -0.0306,-0.52296 m -4.73077,-5.59931 0.005,0.35629 c 0.005,0.27524 -0.28594,0.55048 -0.10704,0.7829 0.53366,-0.26912 -0.0306,-0.72786 0.71716,-0.48014 l -0.0917,-0.20031 c 0.10704,-0.0107 0.3884,-0.10704 0.26913,-0.29054 l -0.46944,-0.0153 0.2049,-0.43121 c -0.2049,-0.0306 -0.41592,0.12233 -0.53366,0.28595 m -1.80711,-6.41938 c -0.12233,0.21561 -0.29665,0.0153 -0.20031,0.37158 l 0.27982,0.29664 -0.16208,0.17279 0.1942,0.13762 c -0.0306,0.17891 -0.15292,0.27983 -0.31806,0.27983 0.1942,-0.005 -0.0765,0.30735 0.31806,0.0917 0.29053,-0.15597 0.12232,-0.37158 0.51225,-0.25842 0.62541,0.18349 0.56577,1.69915 1.38079,1.32727 0.22172,-0.10704 -0.44803,-0.47402 -0.46332,-0.50155 l -0.0918,-0.93276 c -0.16667,-0.1942 -0.65752,-0.34558 -0.8196,-0.13762 -0.34558,-0.22172 -0.006,-0.46944 0.12232,-0.65293 0.10704,-0.13762 0.17279,-0.16209 0.26913,-0.36699 0.0917,-0.16667 0.0306,-0.28594 0.17738,-0.41592 -0.15292,-0.33946 -0.26913,-0.24313 -0.50155,-0.4205 -0.10704,-0.0917 -0.34558,-0.61012 -0.43121,-0.0459 l 0.0612,0.10704 c -0.24313,0.10704 -0.2049,0.70645 -0.33488,0.94346 m 0.53367,2.62702 0.36087,-0.31805 c -0.30277,-0.0612 -0.37311,-0.36087 -0.5826,-0.36087 l -0.005,0.0459 c 0.25383,0.19878 -0.0459,0.46332 0.22631,0.63152 m 0.99239,0.1942 0.0459,0.13762 c 0.12233,-0.24313 0,-0.46944 -0.17738,-0.63611 l -0.12233,0.005 -0.53366,0.2049 0.35628,-0.10703 c 0.25384,0.0765 0.16209,0.32875 0.31347,0.50154 z m -0.79819,5.74504 0.0306,0.0459 c 0.13762,0.10704 0.35628,0.21102 0.41592,0.40522 0.22172,-0.10704 0.15597,-0.32876 -0.0459,-0.44192 z m 3.85703,-13.58297 c 0.31347,-0.12233 0.10704,-0.54437 0.35629,-0.73857 -0.13762,-0.17737 -0.38381,-0.33487 -0.56119,-0.25383 l -0.12233,0.16209 -0.18808,0.30276 0.3884,-0.0306 c -0.0153,0.17738 -0.3991,0.7829 0.12233,0.56577 m -12.41794,8.7658 c 0.0153,-0.91747 -0.63153,-1.31656 -0.7875,-2.18464 l -0.10704,-0.48626 c -0.0612,0.66822 -0.15291,1.32115 -0.25842,1.96354 l 0.0459,0.16667 c 0.0612,0.33487 0.0459,0.63611 0.23701,0.88994 l 0.34558,0.29054 0.23243,0.50154 c 0.38839,-0.28594 -0.31347,-0.96028 0.29053,-1.14377 m 2.96694,-4.59056 c -0.1942,-0.4098 -0.75997,-1.16518 -0.604,-1.62377 0.10704,-0.33946 0.66822,-0.84101 0.90065,-1.13766 l 0.13762,-0.0459 0.18349,0.10704 0.0459,0.12233 0.42051,0.16667 0.005,-0.0306 1.0031,0.0918 0.0765,-0.0765 0.0153,0.0612 0.17279,0.006 0.0764,-0.18808 0.0109,0.15291 0.16209,-0.0765 0.28594,-0.0765 0.0459,0.39298 0.15291,-0.25842 c 0.31805,0.71715 1.52605,-0.18349 2.21156,-0.53366 l 0.0764,-0.23701 c 0.1942,-0.61012 0.51225,-0.73398 0.96029,-1.12696 -0.10704,-0.13762 -0.1942,-0.32417 -0.1835,-0.52296 l 0.15597,-0.36699 -0.29206,-0.46943 0.29206,0.27982 c 0.22631,-0.10703 -0.12233,-0.64681 -0.28594,-0.73856 -0.0153,-0.24313 -0.0765,-0.43733 -0.26913,-0.578 0.22631,0.0153 0.30735,-0.16209 0.51837,-0.21561 0.23243,-0.0612 0.44192,0.0765 0.63611,-0.0917 -0.16667,-0.0764 -0.35628,-0.27982 -0.56577,-0.30276 -0.18808,-0.0153 -0.31805,0.17279 -0.53978,0.10704 -0.0153,-0.27983 -0.31346,-0.80432 -0.15291,-1.04133 0.23243,0.49696 0.50767,0.13762 0.81502,-0.005 0.2049,-0.0917 0.81502,-0.31806 0.62541,0.10704 l -0.26454,0.0459 -0.0109,0.30124 c 0.46332,0.0153 1.19729,-0.37158 1.07955,0.36698 -0.0153,0.12233 -0.43733,0.29206 -0.0917,0.50767 0.15291,0.0917 0.56578,-0.32876 0.43121,0.18349 l -0.12233,0.0306 c -0.0612,0.20491 -0.27982,0.55507 -0.20031,0.7875 0.24313,-0.40522 0.70645,-0.0612 1.02451,-0.26913 0.26912,-0.18808 0.12233,-0.69116 0.0306,-0.9771 -0.12233,-0.36087 -0.39451,-0.3991 0.0306,-0.6147 0.37158,-0.18808 0.57648,-0.1835 0.88536,-0.52908 0.33488,-0.38839 0.29206,-0.28594 0.73856,-0.15291 0.3884,0.10704 0.46332,0.0306 0.71257,-0.26454 0.22172,-0.24771 0.51225,-0.38839 0.71257,-0.6147 0.27524,-0.30735 0.0612,-0.68504 0.15597,-1.00922 0.0612,-0.23701 0.22172,-0.19419 0.16667,-0.50155 l -0.23243,-0.39909 -0.55048,-0.17738 c -0.19419,-0.0917 -0.17279,-0.26913 -0.43121,-0.24772 -0.0306,-0.38228 1.11626,-0.56118 1.41291,-0.58871 0.36698,-0.0306 0.4098,0.0306 0.73856,0.13762 l 0.26912,0.0612 c -3.51176,-4.29406 -8.8522,-7.02353 -14.81284,-7.02353 -3.71147,0 -7.17996,1.06885 -10.11448,2.9021 4.64453,3.88946 7.59526,9.72074 7.59526,16.25327 0,0.31806 -0.0153,0.63153 -0.0306,0.94958 0.15291,-0.27983 0.3884,-0.58871 0.53978,-0.87465 l 0.13762,0.10704 -0.0459,0.13762 c 0.24771,0.18349 0.65293,1.06273 0.77679,0.99851 l -0.13762,0.0917 0.23242,0.25384 0.36699,0.4205 c 0.0612,0.22631 -0.25842,0.27983 -0.1942,0.56119 0.30124,0.0612 0.66364,-0.23701 0.88383,-0.50767 l -0.0153,0.005 0.0306,-0.0612 -0.0459,-0.0306 0.0459,0.0153 -0.0153,-0.0612 0.0306,0.0306 0.006,0.0153 0.0107,-0.0306 0.0109,0.0459 0.10704,-0.12233 c 1.06273,0 1.52147,-1.07344 1.08414,-2.03372 m -32.80318,13.0435 c 6.60272,0.86242 9.80162,-3.19876 10.93974,-5.16229 1.65068,-2.86449 1.28905,-5.41597 2.16324,-6.91022 0.69575,-1.1866 1.55358,-1.49395 1.55358,-1.49395 0,0 -0.93276,-0.54436 -2.31966,-0.0153 -2.79431,1.05662 -2.41127,3.28515 -5.22178,4.81182 -1.38079,0.75538 -3.50091,0.51837 -4.8872,-0.36699 -3.92172,-2.49766 -3.2853,-11.12859 1.74227,-15.58978 6.73759,-5.98771 15.24451,-4.32082 20.71446,2.5894 l 0.0612,-0.0306 c -0.56577,-0.98781 -1.89885,-3.3769 -4.5852,-5.53463 -3.27445,-2.61097 -10.04429,-4.79561 -16.88448,-0.40981 -6.54339,4.19146 -8.04299,12.29378 -6.64049,17.47228 0,0 -1.18659,-1.54272 -1.61826,-3.98105 -0.50767,-2.84813 -0.30277,-7.68151 2.43282,-11.20948 3.51176,-4.52587 7.47125,-5.84749 11.20963,-6.32763 l -0.0109,-0.0765 c -0.85784,-0.0306 -3.88395,-0.19419 -7.19067,1.10097 -3.13957,1.24011 -6.31677,3.96499 -7.9783,7.8705 -2.29261,5.42668 -1.93112,11.03685 0.84101,16.17223 0,0 -3.57645,-2.86434 -3.95949,-8.2641 -0.23701,-3.46865 0.6147,-6.17656 1.51076,-8.38827 l -0.0612,-0.0306 c -0.37158,0.52907 -2.28725,3.37154 -3.01006,7.38501 -1.19271,6.57565 2.85363,15.30919 11.19877,16.38798 m 8.31273,-11.95385 c 0.84713,-0.87924 0.33488,-0.44192 0.94347,-1.06274 0.56118,-0.57189 0.82572,-0.90065 1.82331,-1.15448 -0.17279,-0.12233 -0.35628,-0.24772 -0.55507,-0.33487 -0.85783,-0.31806 -2.27104,-0.40522 -3.17734,0.53366 -0.84713,0.89606 -0.33488,0.44803 -0.94958,1.07343 -0.55507,0.56578 -0.82573,0.89607 -1.81782,1.14837 0.17279,0.12233 0.35629,0.24772 0.55507,0.32876 0.85172,0.32417 2.27104,0.4098 3.17735,-0.53366 m 7.33639,-13.96602 c -6.61358,-0.85783 -9.80698,3.20961 -10.94525,5.1678 -1.65604,2.86434 -1.29516,5.42132 -2.16859,6.91022 -0.69575,1.18659 -1.55894,1.48936 -1.55894,1.48936 0,0 0.93888,0.55048 2.33037,0.0153 2.78896,-1.05662 2.41126,-3.2905 5.21643,-4.81167 1.3869,-0.74926 3.5009,-0.51837 4.8872,0.36699 3.92722,2.4975 3.29601,11.12309 -1.73692,15.58963 -6.73224,5.98786 -15.24451,4.31562 -20.71981,-2.58925 l -0.0612,0.0306 c 0.57189,0.98781 1.90421,3.3769 4.59606,5.53464 3.2743,2.61616 10.03895,4.7956 16.87898,0.4098 6.53789,-4.19681 8.03764,-12.29928 6.64584,-17.47243 0,0 1.18201,1.54288 1.60756,3.98105 0.51837,2.84278 0.30276,7.68701 -2.43297,11.21498 -3.50626,4.52037 -7.46575,5.84199 -11.20398,6.32748 l 0.0107,0.0612 c 0.85172,0.0306 3.88931,0.19419 7.18531,-1.10555 3.14493,-1.23553 6.31678,-3.95414 7.97831,-7.87036 2.30346,-5.42147 1.93663,-11.03164 -0.83642,-16.16702 0,0 3.58179,2.86984 3.95949,8.25875 0.23242,3.46864 -0.61471,6.18206 -1.50465,8.39377 l 0.0612,0.0306 c 0.38228,-0.52296 2.2819,-3.37139 3.01542,-7.38486 1.19271,-6.57581 -2.86434,-15.30919 -11.19863,-16.39349"
       style="fill:#e5b428;fill-opacity:1;fill-rule:nonzero;stroke:none;stroke-width:5.39438"
       id="path3782" />
  </g>
</svg>
